<svg width="137" height="32" viewBox="0 0 137 32" fill="none" xmlns="http://www.w3.org/2000/svg">
<path d="M3.18678 0H0V20.7497H3.18678V0Z" fill="#231815"/>
<path d="M4.73242 7.03527L5.30036 7.3919C6.18383 5.93294 7.22505 4.83061 8.42404 4.08491C9.62303 3.33922 10.9482 2.88532 12.3681 2.82047L12.7151 0.0322266C9.74923 0.810342 7.09884 3.14469 4.73242 7.03527Z" fill="#231815"/>
<path d="M39.1245 9.4991C39.1245 6.64601 38.2726 4.40893 36.5373 2.78786C34.8334 1.16678 32.4355 0.258982 29.3433 0.0644531V0.712883C31.2049 0.972255 32.751 1.81521 33.9184 3.24176C35.0858 4.6683 35.7484 6.48391 35.8747 8.68857H20.1301C20.2563 7.74834 20.5402 6.80812 20.9189 5.93274C21.5184 4.53862 22.3703 3.37144 23.4431 2.43122C24.5158 1.491 25.7464 0.939833 27.0716 0.712883V0.0644531C25.0522 0.194139 23.2537 0.712883 21.7077 1.62068C20.1616 2.52849 18.9311 3.72808 18.1107 5.21947C17.2588 6.74328 16.8486 8.46162 16.8486 10.3745C16.8486 12.2874 17.3219 14.0381 18.2685 15.6268C19.2151 17.2154 20.5718 18.4799 22.3072 19.3877C24.0426 20.3279 26.0303 20.7818 28.3021 20.7818C29.7535 20.7818 31.1418 20.5548 32.4355 20.1333C33.7607 19.6794 34.8965 19.031 35.8747 18.1881L35.1805 17.7017C33.2558 19.3552 31.0787 20.1982 28.5861 20.1982C26.8507 20.1982 25.3362 19.7119 24.011 18.7392C22.6858 17.7666 21.7077 16.5346 21.0135 15.0108C20.3194 13.5194 19.9723 11.9631 19.9723 10.3745C19.9723 10.0827 19.9723 9.7909 20.0039 9.4991H39.1245Z" fill="#231815"/>
<path d="M101.314 17.6049L101.851 18.6748L110.433 0H109.392L101.314 17.6049Z" fill="#231815"/>
<path d="M126.493 20.166C124.757 20.166 123.243 19.6796 121.918 18.707C120.592 17.7344 119.614 16.5023 118.92 14.9785C118.226 13.4871 117.879 11.9309 117.879 10.3423C117.879 10.0505 117.879 9.75867 117.91 9.46688H137C137 6.61379 136.148 4.37671 134.412 2.75563C132.708 1.13456 130.31 0.226755 127.218 0.0322266V0.680656C129.08 0.940028 130.626 1.78299 131.793 3.20953C132.961 4.63608 133.623 6.45168 133.75 8.65634H118.005C118.131 7.71612 118.415 6.77589 118.794 5.90052C119.393 4.50639 120.245 3.33922 121.318 2.39899C122.391 1.45877 123.621 0.907607 124.947 0.680656V0.0322266C122.927 0.161912 121.129 0.680656 119.583 1.58846C118.037 2.49626 116.806 3.69585 115.986 5.18724C115.134 6.71105 114.724 8.42939 114.724 10.3423C114.724 12.2551 115.197 14.0059 116.143 15.5945C117.09 17.1832 118.447 18.4476 120.182 19.3554C121.918 20.2957 123.905 20.7496 126.177 20.7496C127.629 20.7496 129.017 20.5226 130.31 20.1011C131.636 19.6472 132.772 18.9988 133.75 18.1558L133.056 17.6695C131.162 19.323 128.954 20.166 126.493 20.166Z" fill="#231815"/>
<path d="M49.7581 0H46.5713V20.7497H49.7581V0Z" fill="#231815"/>
<path d="M51.3037 7.03527L51.8716 7.3919C52.7551 5.93294 53.7963 4.83061 54.9953 4.08491C56.1943 3.33922 57.5195 2.88532 58.9394 2.82047L59.2864 0.0322266C56.3521 0.810342 53.6701 3.14469 51.3037 7.03527Z" fill="#231815"/>
<path d="M88.126 0L97.6863 20.7497H100.873L91.3128 0H88.126Z" fill="#231815"/>
<path d="M71.5288 2.10742L62.915 20.7822H63.9878L72.0652 3.20975L71.5288 2.10742Z" fill="#231815"/>
<path d="M72.4752 0.0322266L76.7978 9.43446C76.0721 9.85594 75.3149 10.1802 74.5576 10.3747C73.2009 10.7313 71.8126 10.7313 70.4243 10.3747L69.2568 12.936C71.781 13.0981 74.3999 12.1579 77.1449 10.1802L82.0355 20.782H85.2223L75.6619 0.0322266H72.4752Z" fill="#231815"/>
<path d="M5.86905 28.0449C6.05836 28.0449 6.24768 28.0773 6.43699 28.1098C6.6263 28.1422 6.78406 28.207 6.91027 28.2719C7.03648 28.3691 7.16269 28.4664 7.2258 28.6285C7.32045 28.7906 7.35201 28.9527 7.35201 29.1797C7.35201 29.4066 7.2889 29.6012 7.19424 29.7633C7.06803 29.9254 6.91027 30.0551 6.72096 30.1523L7.69908 31.9031H7.19424L6.24768 30.282C6.08991 30.3144 5.93215 30.3144 5.77439 30.3144C5.61663 30.3144 5.45887 30.3144 5.30111 30.3144V31.9031H4.85938V28.0449H5.86905ZM5.30111 28.4664V29.8605H5.93215C6.05836 29.8605 6.15302 29.8605 6.27923 29.8281C6.40544 29.8281 6.50009 29.7633 6.59475 29.7308C6.68941 29.666 6.75251 29.6012 6.81562 29.5039C6.87872 29.4066 6.91027 29.3094 6.91027 29.1473C6.91027 29.0176 6.87872 28.8879 6.81562 28.7906C6.75251 28.6934 6.68941 28.6285 6.59475 28.5637C6.50009 28.4988 6.40544 28.4664 6.27923 28.4664C6.15302 28.434 6.05836 28.434 5.93215 28.434H5.30111V28.4664Z" fill="black"/>
<path d="M8.51953 28.0449H11.2646V28.4664H8.96126V29.7633H11.0122V30.1847H8.96126V31.4816H11.2646V31.9031H8.51953V28.0449Z" fill="black"/>
<path d="M12.1162 28.0449H12.621L13.5992 31.2222L14.6088 28.0449H15.0821L13.8516 31.9031H13.3783L12.1162 28.0449Z" fill="black"/>
<path d="M15.8076 28.0449H16.2493V31.9355H15.8076V28.0449Z" fill="black"/>
<path d="M94.3096 28.0449H94.7513V31.9355H94.3096V28.0449Z" fill="black"/>
<path d="M17.1328 28.0449H17.6376L18.6158 31.2222L19.6254 28.0449H20.0987L18.8682 31.9031H18.3949L17.1328 28.0449Z" fill="black"/>
<path d="M20.8564 28.0449H23.6015V28.4664H21.2982V29.7633H23.3491V30.1847H21.2982V31.4816H23.6015V31.9031H20.8564V28.0449Z" fill="black"/>
<path d="M26.125 28.0449H26.6298L27.5449 29.666L28.4599 28.0449H28.9647L28.1443 29.4715C28.0812 29.5687 28.0497 29.666 27.955 29.7633C27.8919 29.8605 27.8288 29.9902 27.7342 30.1199V31.9031H27.2924C27.2924 31.6113 27.2924 31.3195 27.2924 31.0277C27.2924 30.7035 27.2924 30.4117 27.2924 30.1523C27.2609 30.0875 27.2293 30.0226 27.1978 29.9902C27.1662 29.9254 27.1347 29.8929 27.1031 29.8281C27.0716 29.7633 27.04 29.7308 27.0085 29.666C26.9769 29.6012 26.9454 29.5687 26.9138 29.5039L26.125 28.0449Z" fill="black"/>
<path d="M29.375 29.9896C29.375 29.7303 29.4066 29.4709 29.5012 29.2439C29.5643 28.9846 29.6905 28.79 29.8483 28.5955C30.006 28.401 30.1638 28.2713 30.3847 28.1416C30.6055 28.0119 30.858 27.9795 31.1419 27.9795C31.4259 27.9795 31.6783 28.0443 31.8992 28.1416C32.12 28.2389 32.2778 28.401 32.4356 28.5955C32.5933 28.79 32.688 28.9846 32.7511 29.2439C32.8142 29.5033 32.8458 29.7303 32.8458 30.022C32.8458 30.2814 32.8142 30.5408 32.7511 30.8002C32.688 31.0271 32.5933 31.2541 32.4356 31.4486C32.3094 31.6431 32.12 31.7728 31.8992 31.8701C31.6783 31.9673 31.4259 32.0322 31.1419 32.0322C30.858 32.0322 30.6055 31.9673 30.3847 31.8701C30.1638 31.7728 29.9745 31.6107 29.8483 31.4486C29.6905 31.2541 29.5959 31.0595 29.5328 30.8002C29.4697 30.5408 29.375 30.2814 29.375 29.9896ZM31.1104 31.6107C31.3312 31.6107 31.5521 31.5783 31.7099 31.481C31.8676 31.3837 32.0254 31.2865 32.12 31.1244C32.2147 30.9623 32.3094 30.8002 32.3725 30.6056C32.4356 30.4111 32.4356 30.2166 32.4356 30.022C32.4356 29.7951 32.404 29.6006 32.3725 29.406C32.3094 29.2115 32.2463 29.0494 32.1516 28.8873C32.0569 28.7252 31.8992 28.6279 31.7414 28.5307C31.5837 28.4334 31.3628 28.401 31.1419 28.401C30.9211 28.401 30.7317 28.4334 30.574 28.5307C30.4162 28.6279 30.2585 28.7576 30.1638 28.9197C30.0376 29.0818 29.9745 29.2439 29.9114 29.4385C29.8483 29.633 29.8167 29.8275 29.8167 30.022C29.8167 30.2166 29.8483 30.4435 29.9114 30.6056C29.9745 30.8002 30.0376 30.9623 30.1638 31.1244C30.29 31.2865 30.4162 31.3837 30.574 31.481C30.7002 31.5459 30.8895 31.6107 31.1104 31.6107Z" fill="black"/>
<path d="M33.5713 30.5088V28.0771H34.013V30.4763C34.013 30.6384 34.0446 30.7681 34.0761 30.8978C34.1077 31.0275 34.2023 31.1572 34.2654 31.2545C34.3601 31.3517 34.4548 31.449 34.581 31.4814C34.7072 31.5462 34.8334 31.5787 34.9911 31.5787C35.1489 31.5787 35.3067 31.5462 35.4329 31.4814C35.5591 31.4166 35.6537 31.3517 35.7484 31.2545C35.8431 31.1572 35.9062 31.0275 35.9377 30.8978C35.9693 30.7681 36.0008 30.606 36.0008 30.4763V28.0771H36.4425V30.5088C36.4425 30.7357 36.411 30.9302 36.3479 31.1248C36.2848 31.3193 36.1901 31.4814 36.0639 31.6111C35.9377 31.7408 35.7799 31.838 35.6222 31.9353C35.4644 32.0326 35.2436 32.0326 35.0227 32.0326C34.8018 32.0326 34.6125 32.0001 34.4232 31.9353C34.2339 31.8705 34.1077 31.7408 33.9815 31.6111C33.8553 31.4814 33.7606 31.3193 33.6975 31.1248C33.6028 30.8978 33.5713 30.7033 33.5713 30.5088Z" fill="black"/>
<path d="M38.1786 28.0449C38.3679 28.0449 38.5572 28.0773 38.7466 28.1098C38.9359 28.1422 39.0936 28.207 39.2198 28.2719C39.3461 28.3691 39.4723 28.4664 39.5354 28.6285C39.63 28.7906 39.6616 28.9527 39.6616 29.1797C39.6616 29.4066 39.5985 29.6012 39.5038 29.7633C39.3776 29.9254 39.2198 30.0551 39.0305 30.1523L40.0087 31.9031H39.5038L38.5572 30.282C38.3995 30.3144 38.2417 30.3144 38.084 30.3144C37.9262 30.3144 37.7684 30.3144 37.6107 30.3144V31.9031H37.1689V28.0449H38.1786ZM37.6422 28.4664V29.8605H38.2733C38.3995 29.8605 38.4941 29.8605 38.6203 29.8281C38.7466 29.8281 38.8412 29.7633 38.9359 29.7308C39.0305 29.666 39.0936 29.6012 39.1567 29.5039C39.2198 29.4066 39.2514 29.3094 39.2514 29.1473C39.2514 29.0176 39.2198 28.8879 39.1567 28.7906C39.0936 28.6934 39.0305 28.6285 38.9359 28.5637C38.8412 28.4988 38.7466 28.4664 38.6203 28.4664C38.4941 28.434 38.3995 28.434 38.2733 28.434H37.6422V28.4664Z" fill="black"/>
<path d="M42.4697 28.0449H42.9746L43.8896 29.666L44.8046 28.0449H45.3094L44.4891 29.4715C44.426 29.5687 44.3944 29.666 44.2998 29.7633C44.2367 29.8605 44.1735 29.9902 44.0789 30.1199V31.9031H43.6372C43.6372 31.6113 43.6372 31.3195 43.6372 31.0277C43.6372 30.7035 43.6372 30.4117 43.6372 30.1523C43.6056 30.0875 43.5741 30.0226 43.5425 29.9902C43.5109 29.9254 43.4794 29.8929 43.4478 29.8281C43.4163 29.7633 43.3847 29.7308 43.3532 29.666C43.3216 29.6012 43.2901 29.5687 43.2585 29.5039L42.4697 28.0449Z" fill="black"/>
<path d="M45.751 29.9896C45.751 29.7303 45.7825 29.4709 45.8772 29.2439C45.9403 28.9846 46.0665 28.79 46.2243 28.5955C46.382 28.401 46.5398 28.2713 46.7606 28.1416C46.9815 28.0119 47.2339 27.9795 47.5179 27.9795C47.8019 27.9795 48.0543 28.0443 48.2752 28.1416C48.496 28.2389 48.6538 28.401 48.8115 28.5955C48.9693 28.79 49.064 28.9846 49.1271 29.2439C49.1902 29.5033 49.2217 29.7303 49.2217 30.022C49.2217 30.2814 49.1902 30.5408 49.1271 30.8002C49.064 31.0271 48.9693 31.2541 48.8115 31.4486C48.6853 31.6431 48.496 31.7728 48.2752 31.8701C48.0543 31.9673 47.8019 32.0322 47.5179 32.0322C47.2339 32.0322 46.9815 31.9673 46.7606 31.8701C46.5398 31.7728 46.3505 31.6107 46.2243 31.4486C46.0665 31.2541 45.9718 31.0595 45.9087 30.8002C45.8456 30.5408 45.751 30.2814 45.751 29.9896ZM47.4864 31.6107C47.7072 31.6107 47.9281 31.5783 48.0858 31.481C48.2436 31.3837 48.4014 31.2865 48.496 31.1244C48.5907 30.9623 48.6853 30.8002 48.7484 30.6056C48.8115 30.4111 48.8115 30.2166 48.8115 30.022C48.8115 29.7951 48.78 29.6006 48.7484 29.406C48.6853 29.2115 48.6222 29.0494 48.5276 28.8873C48.4329 28.7252 48.2752 28.6279 48.1174 28.5307C47.9596 28.4334 47.7388 28.401 47.5179 28.401C47.297 28.401 47.1077 28.4334 46.95 28.5307C46.7922 28.6279 46.6344 28.7576 46.5398 28.9197C46.4136 29.0818 46.3505 29.2439 46.2874 29.4385C46.2243 29.633 46.1927 29.8275 46.1927 30.022C46.1927 30.2166 46.2243 30.4435 46.2874 30.6056C46.3505 30.8002 46.4136 30.9623 46.5398 31.1244C46.666 31.2865 46.7922 31.3837 46.95 31.481C47.0446 31.5459 47.2655 31.6107 47.4864 31.6107Z" fill="black"/>
<path d="M49.916 30.5088V28.0771H50.3578V30.4763C50.3578 30.6384 50.3893 30.7681 50.4209 30.8978C50.4524 31.0275 50.5471 31.1572 50.6102 31.2545C50.7048 31.3517 50.7995 31.449 50.9257 31.4814C51.0519 31.5462 51.1781 31.5787 51.3359 31.5787C51.4936 31.5787 51.6514 31.5462 51.7776 31.4814C51.9038 31.4166 51.9985 31.3517 52.0931 31.2545C52.1878 31.1572 52.2509 31.0275 52.2824 30.8978C52.314 30.7681 52.3455 30.606 52.3455 30.4763V28.0771H52.7873V30.5088C52.7873 30.7357 52.7557 30.9302 52.6926 31.1248C52.6295 31.3193 52.5349 31.4814 52.4086 31.6111C52.2824 31.7408 52.1247 31.838 51.9669 31.9353C51.8092 32.0326 51.5883 32.0326 51.3674 32.0326C51.1466 32.0326 50.9572 32.0001 50.7679 31.9353C50.5786 31.8705 50.4524 31.7408 50.3262 31.6111C50.2 31.4814 50.1053 31.3193 50.0422 31.1248C49.9476 30.8978 49.916 30.7033 49.916 30.5088Z" fill="black"/>
<path d="M53.4492 28.4664V28.0449H56.2258V28.4664H55.0584V31.9355H54.6167V28.4664H53.4492Z" fill="black"/>
<path d="M57.1094 28.0449H57.5511V29.7633H59.602V28.0449H60.0437V31.9355H59.602V30.2172H57.5511V31.9355H57.1094V28.0449Z" fill="black"/>
<path d="M62.7256 31.9031L64.2085 28.0449H64.5872L66.0701 31.9031H65.6284L65.1236 30.5738H63.6722L63.1673 31.9031H62.7256ZM64.9658 30.1847L64.3979 28.7258L63.8299 30.1847H64.9658Z" fill="black"/>
<path d="M66.7646 31.9031V28.0449H67.1748L69.2888 31.125V28.0449H69.7306V31.9031H69.3204L67.2064 28.8555V31.9031H66.7646Z" fill="black"/>
<path d="M71.4342 28.0449C71.7497 28.0449 72.0337 28.0773 72.2861 28.1746C72.5385 28.2719 72.7594 28.3691 72.9171 28.5312C73.1064 28.6934 73.2327 28.8879 73.3273 29.1473C73.422 29.3742 73.4535 29.666 73.4535 29.9902C73.4535 30.6386 73.2642 31.125 72.9171 31.4492C72.5701 31.7734 72.0652 31.9355 71.4026 31.9355H70.4561V28.0449H71.4342ZM70.9609 28.4664V31.4816H71.4657C72.0021 31.4816 72.3807 31.3519 72.6647 31.125C72.9487 30.898 73.0749 30.509 73.0749 29.9578C73.0749 29.439 72.9487 29.05 72.6647 28.823C72.3807 28.5637 72.0021 28.4664 71.4973 28.4664H70.9609Z" fill="black"/>
<path d="M77.6813 28.0441C77.8391 28.0441 77.9969 28.0441 78.1546 28.0766C78.3124 28.109 78.4386 28.1414 78.5648 28.2387C78.691 28.3035 78.7857 28.4008 78.8488 28.5305C78.9119 28.6601 78.9434 28.8223 78.9434 29.0168C78.9434 29.2113 78.9119 29.3734 78.8488 29.5031C78.7857 29.6328 78.6595 29.7301 78.4701 29.8273C78.691 29.9246 78.8803 30.0543 79.0065 30.2164C79.1327 30.3785 79.1958 30.6054 79.1958 30.8324C79.1958 31.0593 79.1643 31.2214 79.0696 31.3511C78.975 31.4808 78.8803 31.6105 78.7541 31.6753C78.6279 31.7726 78.5017 31.805 78.3124 31.8375C78.1546 31.8699 77.9969 31.9023 77.8075 31.9023H76.3877V28.0117H77.6813V28.0441ZM76.861 29.6328H77.492C77.6182 29.6328 77.7129 29.6328 77.8391 29.6328C77.9653 29.6328 78.06 29.6004 78.1546 29.5679C78.2493 29.5355 78.3439 29.4707 78.407 29.3734C78.4701 29.2762 78.5017 29.1789 78.5017 29.0168C78.5017 28.8871 78.4701 28.8223 78.4386 28.725C78.3755 28.6601 78.3124 28.5953 78.2493 28.5629C78.1546 28.5305 78.0915 28.498 77.9653 28.498C77.8391 28.498 77.776 28.4656 77.6813 28.4656H76.861V29.6328ZM76.861 31.4808H77.6498C77.776 31.4808 77.9022 31.4808 78.0284 31.4808C78.1546 31.4808 78.2808 31.4484 78.3755 31.3836C78.4701 31.3511 78.5648 31.2539 78.6279 31.189C78.691 31.0918 78.7226 30.9621 78.7226 30.8C78.7226 30.6054 78.691 30.4757 78.5964 30.3785C78.5017 30.2812 78.407 30.2164 78.2808 30.1515C78.1546 30.1191 77.9969 30.0867 77.8707 30.0543C77.7444 30.0218 77.5867 30.0543 77.4605 30.0543H76.8925V31.4808H76.861Z" fill="black"/>
<path d="M80.0166 28.0449H82.7616V28.4664H80.4583V29.7633H82.5092V30.1847H80.4583V31.4816H82.7616V31.9031H80.0166V28.0449Z" fill="black"/>
<path d="M83.4238 31.9031L84.9068 28.0449H85.2854L86.7684 31.9031H86.3266L85.8218 30.5738H84.3704L83.8656 31.9031H83.4238ZM85.664 30.1847L85.0961 28.7258L84.5282 30.1847H85.664Z" fill="black"/>
<path d="M87.3369 30.5088V28.0771H87.7787V30.4763C87.7787 30.6384 87.8102 30.7681 87.8418 30.8978C87.8733 31.0275 87.968 31.1572 88.0311 31.2545C88.0942 31.3517 88.2204 31.449 88.3466 31.4814C88.4728 31.5462 88.599 31.5787 88.7568 31.5787C88.9145 31.5787 89.0723 31.5462 89.1985 31.4814C89.3247 31.4166 89.4194 31.3517 89.514 31.2545C89.6087 31.1572 89.6718 31.0275 89.7033 30.8978C89.7349 30.7681 89.7664 30.606 89.7664 30.4763V28.0771H90.2082V30.5088C90.2082 30.7357 90.1766 30.9302 90.1135 31.1248C90.0504 31.3193 89.9558 31.4814 89.8296 31.6111C89.7033 31.7408 89.5456 31.838 89.3878 31.9353C89.2301 32.0326 89.0092 32.0326 88.7883 32.0326C88.5675 32.0326 88.3781 32.0001 88.1888 31.9353C87.9995 31.8705 87.8733 31.7408 87.7471 31.6111C87.6209 31.4814 87.5262 31.3193 87.4631 31.1248C87.3685 30.8978 87.3369 30.7033 87.3369 30.5088Z" fill="black"/>
<path d="M90.9023 28.4664V28.0449H93.6789V28.4664H92.5115V31.9355H92.0698V28.4664H90.9023Z" fill="black"/>
<path d="M98.4745 28.0439V28.4654H96.1712V29.7623H98.1906V30.1838H96.1712V31.9021H95.7295V28.0439H98.4745Z" fill="black"/>
<path d="M99.043 30.5088V28.0771H99.4847V30.4763C99.4847 30.6384 99.5163 30.7681 99.5478 30.8978C99.5794 31.0275 99.674 31.1572 99.7371 31.2545C99.8002 31.3517 99.9264 31.449 100.053 31.4814C100.179 31.5462 100.305 31.5787 100.463 31.5787C100.621 31.5787 100.778 31.5462 100.905 31.4814C101.031 31.4166 101.125 31.3517 101.22 31.2545C101.315 31.1572 101.378 31.0275 101.409 30.8978C101.441 30.7681 101.472 30.606 101.472 30.4763V28.0771H101.914V30.5088C101.914 30.7357 101.883 30.9302 101.82 31.1248C101.756 31.3193 101.662 31.4814 101.536 31.6111C101.409 31.7408 101.252 31.838 101.094 31.9353C100.936 32.0326 100.715 32.0326 100.494 32.0326C100.274 32.0326 100.084 32.0001 99.8949 31.9353C99.7056 31.8705 99.5794 31.7408 99.4532 31.6111C99.3269 31.4814 99.2323 31.3193 99.1692 31.1248C99.0745 30.8978 99.043 30.7033 99.043 30.5088Z" fill="black"/>
<path d="M105.069 31.4806V31.9021H102.702V28.0439H103.144V31.4806H105.069Z" fill="black"/>
<path d="M107.783 28.0439H108.193L109.423 30.1189L110.685 28.0439H111.064V31.9345H110.622V28.9193L109.581 30.6052H109.234L108.193 28.9193V31.9345H107.751V28.0439H107.783Z" fill="black"/>
<path d="M111.916 29.9896C111.916 29.7303 111.948 29.4709 112.042 29.2439C112.137 29.017 112.232 28.79 112.389 28.5955C112.547 28.401 112.705 28.2713 112.926 28.1416C113.147 28.0443 113.399 27.9795 113.683 27.9795C113.967 27.9795 114.219 28.0443 114.44 28.1416C114.661 28.2389 114.819 28.401 114.977 28.5955C115.103 28.79 115.229 28.9846 115.292 29.2439C115.355 29.5033 115.387 29.7303 115.387 30.022C115.387 30.2814 115.355 30.5408 115.292 30.8002C115.229 31.0595 115.134 31.2541 114.977 31.4486C114.85 31.6431 114.661 31.7728 114.44 31.8701C114.219 31.9673 113.967 32.0322 113.683 32.0322C113.399 32.0322 113.147 31.9673 112.926 31.8701C112.705 31.7728 112.516 31.6107 112.389 31.4486C112.232 31.2541 112.137 31.0595 112.074 30.8002C112.011 30.5408 111.916 30.2814 111.916 29.9896ZM113.651 31.6107C113.872 31.6107 114.093 31.5783 114.251 31.481C114.409 31.3837 114.566 31.2865 114.661 31.1244C114.756 30.9623 114.85 30.8002 114.913 30.6056C114.977 30.4111 114.977 30.2166 114.977 30.022C114.977 29.7951 114.945 29.6006 114.913 29.406C114.85 29.2115 114.787 29.0494 114.693 28.8873C114.598 28.7252 114.44 28.6279 114.282 28.5307C114.125 28.4334 113.904 28.401 113.683 28.401C113.462 28.401 113.273 28.4334 113.115 28.5307C112.957 28.6279 112.799 28.7576 112.705 28.9197C112.579 29.0818 112.516 29.2439 112.452 29.4385C112.389 29.633 112.358 29.8275 112.358 30.022C112.358 30.2166 112.389 30.4435 112.452 30.6056C112.516 30.8002 112.579 30.9623 112.705 31.1244C112.831 31.2865 112.957 31.3837 113.115 31.481C113.241 31.5459 113.431 31.6107 113.651 31.6107Z" fill="black"/>
<path d="M116.239 28.0439H116.649L117.879 30.1189L119.141 28.0439H119.52V31.9345H119.078V28.9193L118.037 30.6052H117.69L116.649 28.9193V31.9345H116.207V28.0439H116.239Z" fill="black"/>
<path d="M120.529 28.0439H123.274V28.4654H120.971V29.7623H123.022V30.1838H120.971V31.4806H123.274V31.9021H120.529V28.0439Z" fill="black"/>
<path d="M124.095 31.9021V28.0439H124.505L126.619 31.124V28.0439H127.061V31.9021H126.65L124.536 28.8545V31.9021H124.095Z" fill="black"/>
<path d="M127.881 28.4654V28.0439H130.657V28.4654H129.49V31.9345H129.048V28.4654H127.881Z" fill="black"/>
</svg>
