<svg width="90" height="14" viewBox="0 0 90 14" fill="none" xmlns="http://www.w3.org/2000/svg">
<path d="M2.09351 0H0V13.3125H2.09351V0Z" fill="black"/>
<path d="M3.10938 4.51446L3.48247 4.74327C4.06285 3.80724 4.74687 3.10001 5.53452 2.62159C6.32218 2.14317 7.19275 1.85196 8.1255 1.81036L8.3535 0.0214844C6.40509 0.520704 4.66396 2.01836 3.10938 4.51446Z" fill="black"/>
<path d="M25.7022 6.09406C25.7022 4.26358 25.1425 2.82833 24.0025 1.78829C22.8832 0.748244 21.3079 0.165821 19.2766 0.0410156V0.457032C20.4995 0.623439 21.5152 1.16426 22.2821 2.0795C23.049 2.99473 23.4843 4.15958 23.5672 5.57404H13.224C13.307 4.97081 13.4935 4.36759 13.7422 3.80597C14.1361 2.91153 14.6957 2.1627 15.4005 1.55948C16.1052 0.956252 16.9136 0.602638 17.7842 0.457032V0.0410156C16.4576 0.124219 15.2761 0.457032 14.2604 1.03946C13.2448 1.62188 12.4364 2.39151 11.8975 3.34835C11.3378 4.32599 11.0684 5.42843 11.0684 6.65568C11.0684 7.88293 11.3793 9.00618 12.0011 10.0254C12.6229 11.0447 13.5142 11.8559 14.6543 12.4383C15.7943 13.0415 17.1001 13.3327 18.5925 13.3327C19.546 13.3327 20.458 13.1871 21.3079 12.9167C22.1784 12.6255 22.9246 12.2095 23.5672 11.6687L23.1112 11.3567C21.8468 12.4175 20.4166 12.9583 18.7791 12.9583C17.6391 12.9583 16.6441 12.6463 15.7736 12.0223C14.903 11.3983 14.2604 10.6078 13.8044 9.6302C13.3484 8.67336 13.1204 7.67492 13.1204 6.65568C13.1204 6.46847 13.1204 6.28127 13.1411 6.09406H25.7022Z" fill="black"/>
<path d="M66.5566 11.2949L66.909 11.9813L72.547 0H71.863L66.5566 11.2949Z" fill="black"/>
<path d="M83.0977 12.9388C81.9576 12.9388 80.9627 12.6268 80.0921 12.0028C79.2216 11.3787 78.579 10.5883 78.123 9.61067C77.667 8.65383 77.439 7.65539 77.439 6.63615C77.439 6.44894 77.439 6.26173 77.4597 6.07453H90C90 4.24405 89.4404 2.8088 88.3003 1.76875C87.181 0.728713 85.6057 0.146289 83.5744 0.0214844V0.437501C84.7974 0.603908 85.813 1.14473 86.5799 2.05997C87.3469 2.9752 87.7821 4.14005 87.8651 5.55451H77.5219C77.6048 4.95128 77.7914 4.34806 78.0401 3.78644C78.4339 2.892 78.9936 2.14317 79.6983 1.53995C80.4031 0.936721 81.2114 0.583107 82.082 0.437501V0.0214844C80.7554 0.104688 79.5739 0.437501 78.5583 1.01992C77.5426 1.60235 76.7342 2.37198 76.1953 3.32882C75.6357 4.30646 75.3662 5.4089 75.3662 6.63615C75.3662 7.8634 75.6771 8.98664 76.299 10.0059C76.9208 11.0251 77.8121 11.8364 78.9521 12.4188C80.0921 13.022 81.398 13.3132 82.8904 13.3132C83.8439 13.3132 84.7559 13.1676 85.6057 12.8972C86.4763 12.606 87.2225 12.19 87.8651 11.6492L87.4091 11.3371C86.1654 12.398 84.7144 12.9388 83.0977 12.9388Z" fill="black"/>
<path d="M32.6873 0H30.5938V13.3125H32.6873V0Z" fill="black"/>
<path d="M33.7031 4.51446L34.0762 4.74327C34.6566 3.80724 35.3406 3.10001 36.1283 2.62159C36.9159 2.14317 37.7865 1.85196 38.7192 1.81036L38.9472 0.0214844C37.0196 0.520704 35.2577 2.01836 33.7031 4.51446Z" fill="black"/>
<path d="M57.8926 0L64.1731 13.3125H66.2666L59.9861 0H57.8926Z" fill="black"/>
<path d="M46.9897 1.35156L41.3311 13.3328H42.0358L47.3421 2.05879L46.9897 1.35156Z" fill="black"/>
<path d="M47.6113 0.0214844L50.451 6.05373C49.9743 6.32414 49.4768 6.53215 48.9793 6.65695C48.088 6.88576 47.176 6.88576 46.264 6.65695L45.4971 8.30022C47.1553 8.40422 48.8757 7.801 50.679 6.53215L53.8918 13.334H55.9853L49.7048 0.0214844H47.6113Z" fill="black"/>
</svg>
